<svg xmlns="http://www.w3.org/2000/svg" xmlns:xlink="http://www.w3.org/1999/xlink" contentStyleType="text/css" height="778px" preserveAspectRatio="none" style="width:1713px;height:778px;background:#FFFFFF;" version="1.1" viewBox="0 0 1713 778" width="1713px" zoomAndPan="magnify"><defs/><g><!--cluster 4ca5d171acaac2c5ca261c97b0d40383--><g id="cluster_4ca5d171acaac2c5ca261c97b0d40383"><polygon fill="none" points="235,140.75,245,130.75,415,130.75,415,652.08,405,662.08,235,662.08,235,140.75" style="stroke:#181818;stroke-width:1.0;"/><line style="stroke:#181818;stroke-width:1.0;" x1="405" x2="415" y1="140.75" y2="130.75"/><line style="stroke:#181818;stroke-width:1.0;" x1="235" x2="405" y1="140.75" y2="140.75"/><line style="stroke:#181818;stroke-width:1.0;" x1="405" x2="405" y1="140.75" y2="662.08"/><text fill="#000000" font-family="sans-serif" font-size="14" font-weight="bold" lengthAdjust="spacing" textLength="37" x="302.5" y="156.7451">Vote</text></g><!--cluster b4a88417b3d0170d754c647c30b7216a--><g id="cluster_b4a88417b3d0170d754c647c30b7216a"><polygon fill="none" points="517,140.75,527,130.75,753,130.75,753,652.08,743,662.08,517,662.08,517,140.75" style="stroke:#181818;stroke-width:1.0;"/><line style="stroke:#181818;stroke-width:1.0;" x1="743" x2="753" y1="140.75" y2="130.75"/><line style="stroke:#181818;stroke-width:1.0;" x1="517" x2="743" y1="140.75" y2="140.75"/><line style="stroke:#181818;stroke-width:1.0;" x1="743" x2="743" y1="140.75" y2="662.08"/><text fill="#000000" font-family="sans-serif" font-size="14" font-weight="bold" lengthAdjust="spacing" textLength="49" x="606.5" y="156.7451">Result</text></g><!--cluster b61822e8357dcaff77eaaccf348d9134--><g id="cluster_b61822e8357dcaff77eaaccf348d9134"><polygon fill="none" points="798,140.75,808,130.75,962,130.75,962,271.64,952,281.64,798,281.64,798,140.75" style="stroke:#181818;stroke-width:1.0;"/><line style="stroke:#181818;stroke-width:1.0;" x1="952" x2="962" y1="140.75" y2="130.75"/><line style="stroke:#181818;stroke-width:1.0;" x1="798" x2="952" y1="140.75" y2="140.75"/><line style="stroke:#181818;stroke-width:1.0;" x1="952" x2="952" y1="140.75" y2="281.64"/><text fill="#000000" font-family="sans-serif" font-size="14" font-weight="bold" lengthAdjust="spacing" textLength="58" x="847" y="156.7451">Worker</text></g><!--cluster 86a1b907d54bf7010394bf316e183e67--><g id="cluster_86a1b907d54bf7010394bf316e183e67"><polygon fill="none" points="1008,132.6,1018,122.6,1247,122.6,1247,652.08,1237,662.08,1008,662.08,1008,132.6" style="stroke:#181818;stroke-width:1.0;"/><line style="stroke:#181818;stroke-width:1.0;" x1="1237" x2="1247" y1="132.6" y2="122.6"/><line style="stroke:#181818;stroke-width:1.0;" x1="1008" x2="1237" y1="132.6" y2="132.6"/><line style="stroke:#181818;stroke-width:1.0;" x1="1237" x2="1237" y1="132.6" y2="662.08"/><text fill="#000000" font-family="sans-serif" font-size="14" font-weight="bold" lengthAdjust="spacing" textLength="43" x="1102" y="148.5951">Redis</text></g><!--cluster d77d5e503ad1439f585ac494268b351b--><g id="cluster_d77d5e503ad1439f585ac494268b351b"><polygon fill="none" points="1287,132.6,1297,122.6,1696,122.6,1696,652.08,1686,662.08,1287,662.08,1287,132.6" style="stroke:#181818;stroke-width:1.0;"/><line style="stroke:#181818;stroke-width:1.0;" x1="1686" x2="1696" y1="132.6" y2="122.6"/><line style="stroke:#181818;stroke-width:1.0;" x1="1287" x2="1686" y1="132.6" y2="132.6"/><line style="stroke:#181818;stroke-width:1.0;" x1="1686" x2="1686" y1="132.6" y2="662.08"/><text fill="#000000" font-family="sans-serif" font-size="14" font-weight="bold" lengthAdjust="spacing" textLength="21" x="1477" y="148.5951">Db</text></g><!--cluster fe4c0f30aa359c41d9f9a5f69c8c4192--><g id="cluster_fe4c0f30aa359c41d9f9a5f69c8c4192"><polygon fill="none" points="16,132.6,26,122.6,195,122.6,195,279.79,185,289.79,16,289.79,16,132.6" style="stroke:#181818;stroke-width:1.0;"/><line style="stroke:#181818;stroke-width:1.0;" x1="185" x2="195" y1="132.6" y2="122.6"/><line style="stroke:#181818;stroke-width:1.0;" x1="16" x2="185" y1="132.6" y2="132.6"/><line style="stroke:#181818;stroke-width:1.0;" x1="185" x2="185" y1="132.6" y2="289.79"/><text fill="#000000" font-family="sans-serif" font-size="14" font-weight="bold" lengthAdjust="spacing" textLength="40" x="81.5" y="148.5951">Seed</text></g><!--entity f5131ba0b3e0b53b7e7dc89907f7c096--><g id="elem_f5131ba0b3e0b53b7e7dc89907f7c096"><rect fill="#F1F1F1" height="78.8906" rx="2.5" ry="2.5" style="stroke:#181818;stroke-width:0.5;" width="75" x="277.5" y="178.75"/><rect fill="#F1F1F1" height="10" style="stroke:#181818;stroke-width:0.5;" width="15" x="332.5" y="183.75"/><rect fill="#F1F1F1" height="2" style="stroke:#181818;stroke-width:0.5;" width="4" x="330.5" y="185.75"/><rect fill="#F1F1F1" height="2" style="stroke:#181818;stroke-width:0.5;" width="4" x="330.5" y="189.75"/><text fill="#000000" font-family="sans-serif" font-size="14" font-weight="bold" lengthAdjust="spacing" textLength="35" x="292.5" y="211.7451">vote</text><text fill="#000000" font-family="sans-serif" font-size="14" lengthAdjust="spacing" textLength="4" x="292.5" y="228.042">&#160;</text><text fill="#000000" font-family="sans-serif" font-size="14" lengthAdjust="spacing" textLength="4" x="292.5" y="244.3389">&#160;</text></g><!--entity c43b046ed093860a5d7159c7c784fe44--><g id="elem_c43b046ed093860a5d7159c7c784fe44"><ellipse cx="356" cy="373.79" fill="#F1F1F1" rx="8" ry="8" style="stroke:#181818;stroke-width:0.5;"/><text fill="#000000" font-family="sans-serif" font-size="14" lengthAdjust="spacing" textLength="18" x="347" y="403.7851">80</text></g><!--entity 80b61c5a3c211d8f7bf3f9716b0e5ddf--><g id="elem_80b61c5a3c211d8f7bf3f9716b0e5ddf"><rect fill="#F1F1F1" height="39.2969" rx="2.5" ry="2.5" style="stroke:#181818;stroke-width:0.5;" width="124" x="259" y="598.79"/><polygon fill="#F1F1F1" points="366,603.79,366,617.79,378,617.79,378,609.79,372,603.79,366,603.79" style="stroke:#181818;stroke-width:0.5;"/><line style="stroke:#181818;stroke-width:0.5;" x1="372" x2="372" y1="603.79" y2="609.79"/><line style="stroke:#181818;stroke-width:0.5;" x1="378" x2="372" y1="609.79" y2="609.79"/><text fill="#000000" font-family="sans-serif" font-size="14" lengthAdjust="spacing" textLength="94" x="269" y="624.7851">/usr/local/app</text></g><!--entity 103c308ad90191278a02e2c284162f3c--><g id="elem_103c308ad90191278a02e2c284162f3c"><rect fill="#F1F1F1" height="78.8906" rx="2.5" ry="2.5" style="stroke:#181818;stroke-width:0.5;" width="86" x="562" y="178.75"/><rect fill="#F1F1F1" height="10" style="stroke:#181818;stroke-width:0.5;" width="15" x="628" y="183.75"/><rect fill="#F1F1F1" height="2" style="stroke:#181818;stroke-width:0.5;" width="4" x="626" y="185.75"/><rect fill="#F1F1F1" height="2" style="stroke:#181818;stroke-width:0.5;" width="4" x="626" y="189.75"/><text fill="#000000" font-family="sans-serif" font-size="14" font-weight="bold" lengthAdjust="spacing" textLength="46" x="577" y="211.7451">result</text><text fill="#000000" font-family="sans-serif" font-size="14" lengthAdjust="spacing" textLength="4" x="577" y="228.042">&#160;</text><text fill="#000000" font-family="sans-serif" font-size="14" lengthAdjust="spacing" textLength="4" x="577" y="244.3389">&#160;</text></g><!--entity 1dc11fb9fd06d34243649e1342aca7d3--><g id="elem_1dc11fb9fd06d34243649e1342aca7d3"><ellipse cx="605" cy="373.79" fill="#F1F1F1" rx="8" ry="8" style="stroke:#181818;stroke-width:0.5;"/><text fill="#000000" font-family="sans-serif" font-size="14" lengthAdjust="spacing" textLength="18" x="596" y="403.7851">80</text></g><!--entity 24d1eb51984aa7fcaadf71152892f50d--><g id="elem_24d1eb51984aa7fcaadf71152892f50d"><ellipse cx="694" cy="373.79" fill="#F1F1F1" rx="8" ry="8" style="stroke:#181818;stroke-width:0.5;"/><text fill="#000000" font-family="sans-serif" font-size="14" lengthAdjust="spacing" textLength="36" x="676" y="403.7851">9229</text></g><!--entity 5eed679516796bc672daa86a502beac3--><g id="elem_5eed679516796bc672daa86a502beac3"><rect fill="#F1F1F1" height="39.2969" rx="2.5" ry="2.5" style="stroke:#181818;stroke-width:0.5;" width="124" x="541" y="598.79"/><polygon fill="#F1F1F1" points="648,603.79,648,617.79,660,617.79,660,609.79,654,603.79,648,603.79" style="stroke:#181818;stroke-width:0.5;"/><line style="stroke:#181818;stroke-width:0.5;" x1="654" x2="654" y1="603.79" y2="609.79"/><line style="stroke:#181818;stroke-width:0.5;" x1="660" x2="654" y1="609.79" y2="609.79"/><text fill="#000000" font-family="sans-serif" font-size="14" lengthAdjust="spacing" textLength="94" x="551" y="624.7851">/usr/local/app</text></g><!--entity 58cb1d5d18c31768c4f0425db9be1e04--><g id="elem_58cb1d5d18c31768c4f0425db9be1e04"><rect fill="#F1F1F1" height="78.8906" rx="2.5" ry="2.5" style="stroke:#181818;stroke-width:0.5;" width="97" x="821.5" y="178.75"/><rect fill="#F1F1F1" height="10" style="stroke:#181818;stroke-width:0.5;" width="15" x="898.5" y="183.75"/><rect fill="#F1F1F1" height="2" style="stroke:#181818;stroke-width:0.5;" width="4" x="896.5" y="185.75"/><rect fill="#F1F1F1" height="2" style="stroke:#181818;stroke-width:0.5;" width="4" x="896.5" y="189.75"/><text fill="#000000" font-family="sans-serif" font-size="14" font-weight="bold" lengthAdjust="spacing" textLength="57" x="836.5" y="211.7451">worker</text><text fill="#000000" font-family="sans-serif" font-size="14" lengthAdjust="spacing" textLength="4" x="836.5" y="228.042">&#160;</text><text fill="#000000" font-family="sans-serif" font-size="14" lengthAdjust="spacing" textLength="4" x="836.5" y="244.3389">&#160;</text></g><!--entity 3c217ea98bfddc0f9ff1c849de325d93--><g id="elem_3c217ea98bfddc0f9ff1c849de325d93"><rect fill="#F1F1F1" height="95.1875" rx="2.5" ry="2.5" style="stroke:#181818;stroke-width:0.5;" width="171" x="1032.5" y="170.6"/><rect fill="#F1F1F1" height="10" style="stroke:#181818;stroke-width:0.5;" width="15" x="1183.5" y="175.6"/><rect fill="#F1F1F1" height="2" style="stroke:#181818;stroke-width:0.5;" width="4" x="1181.5" y="177.6"/><rect fill="#F1F1F1" height="2" style="stroke:#181818;stroke-width:0.5;" width="4" x="1181.5" y="181.6"/><text fill="#000000" font-family="sans-serif" font-size="14" font-weight="bold" lengthAdjust="spacing" textLength="40" x="1047.5" y="203.5951">redis</text><text fill="#000000" font-family="sans-serif" font-size="14" lengthAdjust="spacing" textLength="4" x="1047.5" y="219.892">&#160;</text><text fill="#000000" font-family="sans-serif" font-size="14" lengthAdjust="spacing" textLength="131" x="1047.5" y="236.1889">image: redis:alpine</text><text fill="#000000" font-family="sans-serif" font-size="14" lengthAdjust="spacing" textLength="4" x="1047.5" y="252.4857">&#160;</text></g><!--entity c285a3d8e27164479ebc4636cc27ddab--><g id="elem_c285a3d8e27164479ebc4636cc27ddab"><rect fill="#F1F1F1" height="39.2969" rx="2.5" ry="2.5" style="stroke:#181818;stroke-width:0.5;" width="128" x="1065" y="598.79"/><polygon fill="#F1F1F1" points="1176,603.79,1176,617.79,1188,617.79,1188,609.79,1182,603.79,1176,603.79" style="stroke:#181818;stroke-width:0.5;"/><line style="stroke:#181818;stroke-width:0.5;" x1="1182" x2="1182" y1="603.79" y2="609.79"/><line style="stroke:#181818;stroke-width:0.5;" x1="1188" x2="1182" y1="609.79" y2="609.79"/><text fill="#000000" font-family="sans-serif" font-size="14" lengthAdjust="spacing" textLength="98" x="1075" y="624.7851">/healthchecks</text></g><!--entity 355aeb7ac3f8fa43e8d94fbf0e4b8d6c--><g id="elem_355aeb7ac3f8fa43e8d94fbf0e4b8d6c"><rect fill="#F1F1F1" height="95.1875" rx="2.5" ry="2.5" style="stroke:#181818;stroke-width:0.5;" width="222" x="1358" y="170.6"/><rect fill="#F1F1F1" height="10" style="stroke:#181818;stroke-width:0.5;" width="15" x="1560" y="175.6"/><rect fill="#F1F1F1" height="2" style="stroke:#181818;stroke-width:0.5;" width="4" x="1558" y="177.6"/><rect fill="#F1F1F1" height="2" style="stroke:#181818;stroke-width:0.5;" width="4" x="1558" y="181.6"/><text fill="#000000" font-family="sans-serif" font-size="14" font-weight="bold" lengthAdjust="spacing" textLength="20" x="1373" y="203.5951">db</text><text fill="#000000" font-family="sans-serif" font-size="14" lengthAdjust="spacing" textLength="4" x="1373" y="219.892">&#160;</text><text fill="#000000" font-family="sans-serif" font-size="14" lengthAdjust="spacing" textLength="182" x="1373" y="236.1889">image: postgres:15-alpine</text><text fill="#000000" font-family="sans-serif" font-size="14" lengthAdjust="spacing" textLength="4" x="1373" y="252.4857">&#160;</text></g><!--entity d5baecb173d637b4e1f821d6b00b6f89--><g id="elem_d5baecb173d637b4e1f821d6b00b6f89"><rect fill="#F1F1F1" height="39.2969" rx="2.5" ry="2.5" style="stroke:#181818;stroke-width:0.5;" width="189" x="1474.5" y="598.79"/><polygon fill="#F1F1F1" points="1646.5,603.79,1646.5,617.79,1658.5,617.79,1658.5,609.79,1652.5,603.79,1646.5,603.79" style="stroke:#181818;stroke-width:0.5;"/><line style="stroke:#181818;stroke-width:0.5;" x1="1652.5" x2="1652.5" y1="603.79" y2="609.79"/><line style="stroke:#181818;stroke-width:0.5;" x1="1658.5" x2="1652.5" y1="609.79" y2="609.79"/><text fill="#000000" font-family="sans-serif" font-size="14" lengthAdjust="spacing" textLength="159" x="1484.5" y="624.7851">/var/lib/postgresql/data</text></g><!--entity 0e14625139d268ff102ab34038658cbb--><g id="elem_0e14625139d268ff102ab34038658cbb"><rect fill="#F1F1F1" height="39.2969" rx="2.5" ry="2.5" style="stroke:#181818;stroke-width:0.5;" width="128" x="1311" y="598.79"/><polygon fill="#F1F1F1" points="1422,603.79,1422,617.79,1434,617.79,1434,609.79,1428,603.79,1422,603.79" style="stroke:#181818;stroke-width:0.5;"/><line style="stroke:#181818;stroke-width:0.5;" x1="1428" x2="1428" y1="603.79" y2="609.79"/><line style="stroke:#181818;stroke-width:0.5;" x1="1434" x2="1428" y1="609.79" y2="609.79"/><text fill="#000000" font-family="sans-serif" font-size="14" lengthAdjust="spacing" textLength="98" x="1321" y="624.7851">/healthchecks</text></g><!--entity 997aedb6c8f2a75ace2b576d941a40b6--><g id="elem_997aedb6c8f2a75ace2b576d941a40b6"><rect fill="#F1F1F1" height="95.1875" rx="2.5" ry="2.5" style="stroke:#181818;stroke-width:0.5;" width="112" x="40" y="170.6"/><rect fill="#F1F1F1" height="10" style="stroke:#181818;stroke-width:0.5;" width="15" x="132" y="175.6"/><rect fill="#F1F1F1" height="2" style="stroke:#181818;stroke-width:0.5;" width="4" x="130" y="177.6"/><rect fill="#F1F1F1" height="2" style="stroke:#181818;stroke-width:0.5;" width="4" x="130" y="181.6"/><text fill="#000000" font-family="sans-serif" font-size="14" font-weight="bold" lengthAdjust="spacing" textLength="39" x="55" y="203.5951">seed</text><text fill="#000000" font-family="sans-serif" font-size="14" lengthAdjust="spacing" textLength="4" x="55" y="219.892">&#160;</text><text fill="#000000" font-family="sans-serif" font-size="14" lengthAdjust="spacing" textLength="72" x="55" y="236.1889">restart: no</text><text fill="#000000" font-family="sans-serif" font-size="14" lengthAdjust="spacing" textLength="4" x="55" y="252.4857">&#160;</text></g><!--entity d9fe74bd71c5f1efd83d8f6cfdd7bef5--><g id="elem_d9fe74bd71c5f1efd83d8f6cfdd7bef5"><polygon fill="#F1F1F1" points="350,16,360,6,464,6,464,58.5938,454,68.5938,350,68.5938,350,16" style="stroke:#181818;stroke-width:0.5;"/><line style="stroke:#181818;stroke-width:0.5;" x1="454" x2="464" y1="16" y2="6"/><line style="stroke:#181818;stroke-width:0.5;" x1="350" x2="454" y1="16" y2="16"/><line style="stroke:#181818;stroke-width:0.5;" x1="454" x2="454" y1="16" y2="68.5938"/><text fill="#000000" font-family="sans-serif" font-size="14" font-weight="bold" lengthAdjust="spacing" textLength="72" x="365" y="38.9951">front-tier</text><text fill="#000000" font-family="sans-serif" font-size="14" lengthAdjust="spacing" textLength="74" x="365" y="55.292">&#171;network&#187;</text></g><!--entity cab64c5af73a02ce213c72c614ccdc8f--><g id="elem_cab64c5af73a02ce213c72c614ccdc8f"><polygon fill="#F1F1F1" points="897,16,907,6,1011,6,1011,58.5938,1001,68.5938,897,68.5938,897,16" style="stroke:#181818;stroke-width:0.5;"/><line style="stroke:#181818;stroke-width:0.5;" x1="1001" x2="1011" y1="16" y2="6"/><line style="stroke:#181818;stroke-width:0.5;" x1="897" x2="1001" y1="16" y2="16"/><line style="stroke:#181818;stroke-width:0.5;" x1="1001" x2="1001" y1="16" y2="68.5938"/><text fill="#000000" font-family="sans-serif" font-size="14" font-weight="bold" lengthAdjust="spacing" textLength="70" x="912" y="38.9951">back-tier</text><text fill="#000000" font-family="sans-serif" font-size="14" lengthAdjust="spacing" textLength="74" x="912" y="55.292">&#171;network&#187;</text></g><!--entity 600c44c1349e9154dce569ba37e2d70b--><g id="elem_600c44c1349e9154dce569ba37e2d70b"><ellipse cx="466" cy="508.79" fill="#F1F1F1" rx="8" ry="8" style="stroke:#181818;stroke-width:0.5;"/><text fill="#000000" font-family="sans-serif" font-size="14" lengthAdjust="spacing" textLength="36" x="448" y="538.7851">8080</text></g><!--entity 71cd0360f6326df5c4cd7e29e675c5c1--><g id="elem_71cd0360f6326df5c4cd7e29e675c5c1"><ellipse cx="804" cy="508.79" fill="#F1F1F1" rx="8" ry="8" style="stroke:#181818;stroke-width:0.5;"/><text fill="#000000" font-family="sans-serif" font-size="14" lengthAdjust="spacing" textLength="36" x="786" y="538.7851">8081</text></g><!--entity 76332719813fc156407dbf5fb2f22aa4--><g id="elem_76332719813fc156407dbf5fb2f22aa4"><ellipse cx="925" cy="508.79" fill="#F1F1F1" rx="8" ry="8" style="stroke:#181818;stroke-width:0.5;"/><text fill="#000000" font-family="sans-serif" font-size="14" lengthAdjust="spacing" textLength="102" x="874" y="538.7851">127.0.0.19229</text></g><!--entity f9f31850df093b59d48a1a998f0e2235--><g id="elem_f9f31850df093b59d48a1a998f0e2235"><rect fill="#F1F1F1" height="39.2969" rx="2.5" ry="2.5" style="stroke:#181818;stroke-width:0.5;" width="69" x="286.5" y="733.08"/><polygon fill="#F1F1F1" points="338.5,738.08,338.5,752.08,350.5,752.08,350.5,744.08,344.5,738.08,338.5,738.08" style="stroke:#181818;stroke-width:0.5;"/><line style="stroke:#181818;stroke-width:0.5;" x1="344.5" x2="344.5" y1="738.08" y2="744.08"/><line style="stroke:#181818;stroke-width:0.5;" x1="350.5" x2="344.5" y1="744.08" y2="744.08"/><text fill="#000000" font-family="sans-serif" font-size="14" lengthAdjust="spacing" textLength="39" x="296.5" y="759.0751">./vote</text></g><!--entity e8d02a2ca40ffbb8efed534e0fd46509--><g id="elem_e8d02a2ca40ffbb8efed534e0fd46509"><rect fill="#F1F1F1" height="39.2969" rx="2.5" ry="2.5" style="stroke:#181818;stroke-width:0.5;" width="78" x="564" y="733.08"/><polygon fill="#F1F1F1" points="625,738.08,625,752.08,637,752.08,637,744.08,631,738.08,625,738.08" style="stroke:#181818;stroke-width:0.5;"/><line style="stroke:#181818;stroke-width:0.5;" x1="631" x2="631" y1="738.08" y2="744.08"/><line style="stroke:#181818;stroke-width:0.5;" x1="637" x2="631" y1="744.08" y2="744.08"/><text fill="#000000" font-family="sans-serif" font-size="14" lengthAdjust="spacing" textLength="48" x="574" y="759.0751">./result</text></g><!--entity a40ec30778b0df0a680fa7fb121dfa97--><g id="elem_a40ec30778b0df0a680fa7fb121dfa97"><rect fill="#F1F1F1" height="39.2969" rx="2.5" ry="2.5" style="stroke:#181818;stroke-width:0.5;" width="132" x="1162" y="733.08"/><polygon fill="#F1F1F1" points="1277,738.08,1277,752.08,1289,752.08,1289,744.08,1283,738.08,1277,738.08" style="stroke:#181818;stroke-width:0.5;"/><line style="stroke:#181818;stroke-width:0.5;" x1="1283" x2="1283" y1="738.08" y2="744.08"/><line style="stroke:#181818;stroke-width:0.5;" x1="1289" x2="1283" y1="744.08" y2="744.08"/><text fill="#000000" font-family="sans-serif" font-size="14" lengthAdjust="spacing" textLength="102" x="1172" y="759.0751">./healthchecks</text></g><!--entity 9882ad60b8ffd8fcaf975b5c38b8d684--><g id="elem_9882ad60b8ffd8fcaf975b5c38b8d684"><rect fill="#F1F1F1" height="39.2969" rx="2.5" ry="2.5" style="stroke:#181818;stroke-width:0.5;" width="83" x="1527.5" y="733.08"/><polygon fill="#F1F1F1" points="1593.5,738.08,1593.5,752.08,1605.5,752.08,1605.5,744.08,1599.5,738.08,1593.5,738.08" style="stroke:#181818;stroke-width:0.5;"/><line style="stroke:#181818;stroke-width:0.5;" x1="1599.5" x2="1599.5" y1="738.08" y2="744.08"/><line style="stroke:#181818;stroke-width:0.5;" x1="1605.5" x2="1599.5" y1="744.08" y2="744.08"/><text fill="#000000" font-family="sans-serif" font-size="14" lengthAdjust="spacing" textLength="53" x="1537.5" y="759.0751">db-data</text></g><!--link f5131ba0b3e0b53b7e7dc89907f7c096 to c43b046ed093860a5d7159c7c784fe44--><g id="link_f5131ba0b3e0b53b7e7dc89907f7c096_c43b046ed093860a5d7159c7c784fe44"><path codeLine="64" d="M325.35,257.95 C335.02,294.21 348.74,345.6 353.92,364.98 " fill="none" id="f5131ba0b3e0b53b7e7dc89907f7c096-c43b046ed093860a5d7159c7c784fe44" style="stroke:#181818;stroke-width:1.0;"/></g><!--link c43b046ed093860a5d7159c7c784fe44 to 600c44c1349e9154dce569ba37e2d70b--><g id="link_c43b046ed093860a5d7159c7c784fe44_600c44c1349e9154dce569ba37e2d70b"><path codeLine="65" d="M362.55,382.71 C382.16,406.42 440.24,476.64 459.62,500.07 " fill="none" id="c43b046ed093860a5d7159c7c784fe44-600c44c1349e9154dce569ba37e2d70b" style="stroke:#181818;stroke-width:1.0;"/></g><!--link 80b61c5a3c211d8f7bf3f9716b0e5ddf to f9f31850df093b59d48a1a998f0e2235--><g id="link_80b61c5a3c211d8f7bf3f9716b0e5ddf_f9f31850df093b59d48a1a998f0e2235"><path codeLine="66" d="M321,638.39 C321,663.54 321,707.68 321,732.81 " fill="none" id="80b61c5a3c211d8f7bf3f9716b0e5ddf-f9f31850df093b59d48a1a998f0e2235" style="stroke:#181818;stroke-width:1.0;"/><text fill="#000000" font-family="sans-serif" font-size="13" lengthAdjust="spacing" textLength="14" x="322" y="699.1469">rw</text></g><!--link f5131ba0b3e0b53b7e7dc89907f7c096 to 80b61c5a3c211d8f7bf3f9716b0e5ddf--><g id="link_f5131ba0b3e0b53b7e7dc89907f7c096_80b61c5a3c211d8f7bf3f9716b0e5ddf"><path codeLine="67" d="M313.84,257.94 C313.15,282.77 312.35,315.67 312,344.79 C311.69,370.56 311.46,377.01 312,402.79 C313.52,475.13 317.5731,555.1089 319.6131,592.4989 " fill="none" id="f5131ba0b3e0b53b7e7dc89907f7c096-to-80b61c5a3c211d8f7bf3f9716b0e5ddf" style="stroke:#181818;stroke-width:1.0;stroke-dasharray:7.0,7.0;"/><polygon fill="#181818" points="319.94,598.49,323.4437,589.2854,319.6676,593.4974,315.4556,589.7213,319.94,598.49" style="stroke:#181818;stroke-width:1.0;"/><text fill="#000000" font-family="sans-serif" font-size="13" lengthAdjust="spacing" textLength="23" x="314" y="445.8569">use</text></g><!--reverse link d9fe74bd71c5f1efd83d8f6cfdd7bef5 to 4ca5d171acaac2c5ca261c97b0d40383--><g id="link_d9fe74bd71c5f1efd83d8f6cfdd7bef5_4ca5d171acaac2c5ca261c97b0d40383"><path codeLine="68" d="M407,75.05 C407,87.6375 407,97.0012 407,113.0125 C407,117.0153 407,121.0586 407,125.1091 C407,126.1217 407,127.1348 407,128.1478 C407,128.6543 407,129.1608 407,129.6672 C407,129.9204 407,130.1735 407,130.4267 " fill="none" id="d9fe74bd71c5f1efd83d8f6cfdd7bef5-backto-4ca5d171acaac2c5ca261c97b0d40383" style="stroke:#181818;stroke-width:1.0;"/><polygon fill="#181818" points="407,69.05,403,78.05,407,74.05,411,78.05,407,69.05" style="stroke:#181818;stroke-width:1.0;"/></g><!--reverse link cab64c5af73a02ce213c72c614ccdc8f to 4ca5d171acaac2c5ca261c97b0d40383--><g id="link_cab64c5af73a02ce213c72c614ccdc8f_4ca5d171acaac2c5ca261c97b0d40383"><path codeLine="69" d="M890.8157,43.7742 C789.5957,53.1642 589.51,75 525,106.6 C493.23,122.16 464.1475,149.195 442.8038,172.64 C432.1319,184.3625 423.3947,195.1875 417.2236,203.2319 C416.4522,204.2374 415.7209,205.1995 415.031,206.1145 " fill="none" id="cab64c5af73a02ce213c72c614ccdc8f-backto-4ca5d171acaac2c5ca261c97b0d40383" style="stroke:#181818;stroke-width:1.0;"/><polygon fill="#181818" points="896.79,43.22,887.459,40.0684,891.8114,43.6819,888.198,48.0342,896.79,43.22" style="stroke:#181818;stroke-width:1.0;"/></g><!--link 103c308ad90191278a02e2c284162f3c to 1dc11fb9fd06d34243649e1342aca7d3--><g id="link_103c308ad90191278a02e2c284162f3c_1dc11fb9fd06d34243649e1342aca7d3"><path codeLine="70" d="M605,257.95 C605,294.21 605,345.6 605,364.98 " fill="none" id="103c308ad90191278a02e2c284162f3c-1dc11fb9fd06d34243649e1342aca7d3" style="stroke:#181818;stroke-width:1.0;"/></g><!--link 1dc11fb9fd06d34243649e1342aca7d3 to 71cd0360f6326df5c4cd7e29e675c5c1--><g id="link_1dc11fb9fd06d34243649e1342aca7d3_71cd0360f6326df5c4cd7e29e675c5c1"><path codeLine="71" d="M613.81,380.67 C646.75,402.69 762.52,480.06 795.29,501.97 " fill="none" id="1dc11fb9fd06d34243649e1342aca7d3-71cd0360f6326df5c4cd7e29e675c5c1" style="stroke:#181818;stroke-width:1.0;"/></g><!--link 103c308ad90191278a02e2c284162f3c to 24d1eb51984aa7fcaadf71152892f50d--><g id="link_103c308ad90191278a02e2c284162f3c_24d1eb51984aa7fcaadf71152892f50d"><path codeLine="72" d="M625.31,257.85 C633.41,272.92 642.94,290.28 652,305.79 C664.74,327.6 680.86,352.67 688.93,365.04 " fill="none" id="103c308ad90191278a02e2c284162f3c-24d1eb51984aa7fcaadf71152892f50d" style="stroke:#181818;stroke-width:1.0;"/></g><!--link 24d1eb51984aa7fcaadf71152892f50d to 76332719813fc156407dbf5fb2f22aa4--><g id="link_24d1eb51984aa7fcaadf71152892f50d_76332719813fc156407dbf5fb2f22aa4"><path codeLine="73" d="M702.77,379.84 C739.36,400.91 879.61,481.65 916.22,502.73 " fill="none" id="24d1eb51984aa7fcaadf71152892f50d-76332719813fc156407dbf5fb2f22aa4" style="stroke:#181818;stroke-width:1.0;"/></g><!--link 5eed679516796bc672daa86a502beac3 to e8d02a2ca40ffbb8efed534e0fd46509--><g id="link_5eed679516796bc672daa86a502beac3_e8d02a2ca40ffbb8efed534e0fd46509"><path codeLine="74" d="M603,638.39 C603,663.54 603,707.68 603,732.81 " fill="none" id="5eed679516796bc672daa86a502beac3-e8d02a2ca40ffbb8efed534e0fd46509" style="stroke:#181818;stroke-width:1.0;"/><text fill="#000000" font-family="sans-serif" font-size="13" lengthAdjust="spacing" textLength="14" x="604" y="699.1469">rw</text></g><!--link 103c308ad90191278a02e2c284162f3c to 5eed679516796bc672daa86a502beac3--><g id="link_103c308ad90191278a02e2c284162f3c_5eed679516796bc672daa86a502beac3"><path codeLine="75" d="M587.63,257.89 C577.65,282.27 566.11,314.72 561,344.79 C544.82,439.92 578.1198,548.5568 593.8898,592.9068 " fill="none" id="103c308ad90191278a02e2c284162f3c-to-5eed679516796bc672daa86a502beac3" style="stroke:#181818;stroke-width:1.0;stroke-dasharray:7.0,7.0;"/><polygon fill="#181818" points="595.9,598.56,596.6536,588.74,594.2248,593.849,589.1159,591.4203,595.9,598.56" style="stroke:#181818;stroke-width:1.0;"/><text fill="#000000" font-family="sans-serif" font-size="13" lengthAdjust="spacing" textLength="23" x="560" y="445.8569">use</text></g><!--reverse link d9fe74bd71c5f1efd83d8f6cfdd7bef5 to b4a88417b3d0170d754c647c30b7216a--><g id="link_d9fe74bd71c5f1efd83d8f6cfdd7bef5_b4a88417b3d0170d754c647c30b7216a"><path codeLine="76" d="M470.2708,42.5096 C555.0708,49.3096 701.82,66.44 737,106.6 C752.985,124.845 755.1725,151.92 753.2725,174.7138 C753.2131,175.4261 753.1498,176.1342 753.0827,176.8377 C753.0659,177.0136 753.0489,177.1892 753.0317,177.3645 " fill="none" id="d9fe74bd71c5f1efd83d8f6cfdd7bef5-backto-b4a88417b3d0170d754c647c30b7216a" style="stroke:#181818;stroke-width:1.0;"/><polygon fill="#181818" points="464.29,42.03,472.9415,46.7366,469.274,42.4297,473.5809,38.7622,464.29,42.03" style="stroke:#181818;stroke-width:1.0;"/></g><!--reverse link cab64c5af73a02ce213c72c614ccdc8f to b4a88417b3d0170d754c647c30b7216a--><g id="link_cab64c5af73a02ce213c72c614ccdc8f_b4a88417b3d0170d754c647c30b7216a"><path codeLine="77" d="M891.0297,57.1837 C861.2997,68.1337 831.58,82.79 806,106.6 C785.775,125.425 770.6825,152.51 760.5687,175.1638 C758.0403,180.8272 755.823,186.2137 753.9146,191.1249 C753.676,191.7388 753.4423,192.3453 753.2133,192.9439 C753.1561,193.0936 753.0992,193.2428 753.0425,193.3915 " fill="none" id="cab64c5af73a02ce213c72c614ccdc8f-backto-b4a88417b3d0170d754c647c30b7216a" style="stroke:#181818;stroke-width:1.0;"/><polygon fill="#181818" points="896.66,55.11,886.8322,54.4671,891.9681,56.8381,889.5971,61.9741,896.66,55.11" style="stroke:#181818;stroke-width:1.0;"/></g><!--reverse link cab64c5af73a02ce213c72c614ccdc8f to b61822e8357dcaff77eaaccf348d9134--><g id="link_cab64c5af73a02ce213c72c614ccdc8f_b61822e8357dcaff77eaaccf348d9134"><path codeLine="78" d="M954,75.05 C954,87.6375 954,97.0012 954,113.0125 C954,117.0153 954,121.0586 954,125.1091 C954,126.1217 954,127.1348 954,128.1478 C954,128.6543 954,129.1608 954,129.6672 C954,129.9204 954,130.1735 954,130.4267 " fill="none" id="cab64c5af73a02ce213c72c614ccdc8f-backto-b61822e8357dcaff77eaaccf348d9134" style="stroke:#181818;stroke-width:1.0;"/><polygon fill="#181818" points="954,69.05,950,78.05,954,74.05,958,78.05,954,69.05" style="stroke:#181818;stroke-width:1.0;"/></g><!--link c285a3d8e27164479ebc4636cc27ddab to a40ec30778b0df0a680fa7fb121dfa97--><g id="link_c285a3d8e27164479ebc4636cc27ddab_a40ec30778b0df0a680fa7fb121dfa97"><path codeLine="79" d="M1143.18,638.39 C1162,663.54 1195.04,707.68 1213.84,732.81 " fill="none" id="c285a3d8e27164479ebc4636cc27ddab-a40ec30778b0df0a680fa7fb121dfa97" style="stroke:#181818;stroke-width:1.0;"/><text fill="#000000" font-family="sans-serif" font-size="13" lengthAdjust="spacing" textLength="14" x="1191" y="699.1469">rw</text></g><!--link 3c217ea98bfddc0f9ff1c849de325d93 to c285a3d8e27164479ebc4636cc27ddab--><g id="link_3c217ea98bfddc0f9ff1c849de325d93_c285a3d8e27164479ebc4636cc27ddab"><path codeLine="80" d="M1119.29,266.05 C1121.71,353.64 1126.6643,532.7323 1128.3143,592.4423 " fill="none" id="3c217ea98bfddc0f9ff1c849de325d93-to-c285a3d8e27164479ebc4636cc27ddab" style="stroke:#181818;stroke-width:1.0;stroke-dasharray:7.0,7.0;"/><polygon fill="#181818" points="1128.48,598.44,1132.2299,589.3329,1128.3419,593.4419,1124.2329,589.5539,1128.48,598.44" style="stroke:#181818;stroke-width:1.0;"/><text fill="#000000" font-family="sans-serif" font-size="13" lengthAdjust="spacing" textLength="23" x="1125" y="445.8569">use</text></g><!--reverse link cab64c5af73a02ce213c72c614ccdc8f to 86a1b907d54bf7010394bf316e183e67--><g id="link_cab64c5af73a02ce213c72c614ccdc8f_86a1b907d54bf7010394bf316e183e67"><path codeLine="81" d="M1017.1771,46.5365 C1086.6571,56.6765 1192.09,76.32 1220,106.6 C1224.16,111.1113 1227.5839,116.1867 1230.3899,121.6193 C1230.4776,121.789 1230.5647,121.9591 1230.6511,122.1296 " fill="none" id="cab64c5af73a02ce213c72c614ccdc8f-backto-86a1b907d54bf7010394bf316e183e67" style="stroke:#181818;stroke-width:1.0;"/><polygon fill="#181818" points="1011.24,45.67,1019.568,50.9278,1016.1876,46.3921,1020.7233,43.0116,1011.24,45.67" style="stroke:#181818;stroke-width:1.0;"/></g><!--link d5baecb173d637b4e1f821d6b00b6f89 to 9882ad60b8ffd8fcaf975b5c38b8d684--><g id="link_d5baecb173d637b4e1f821d6b00b6f89_9882ad60b8ffd8fcaf975b5c38b8d684"><path codeLine="82" d="M1569,638.39 C1569,663.54 1569,707.68 1569,732.81 " fill="none" id="d5baecb173d637b4e1f821d6b00b6f89-9882ad60b8ffd8fcaf975b5c38b8d684" style="stroke:#181818;stroke-width:1.0;"/><text fill="#000000" font-family="sans-serif" font-size="13" lengthAdjust="spacing" textLength="14" x="1570" y="699.1469">rw</text></g><!--link 355aeb7ac3f8fa43e8d94fbf0e4b8d6c to d5baecb173d637b4e1f821d6b00b6f89--><g id="link_355aeb7ac3f8fa43e8d94fbf0e4b8d6c_d5baecb173d637b4e1f821d6b00b6f89"><path codeLine="83" d="M1480.77,266.05 C1502.76,353.64 1547.7791,532.9106 1562.7691,592.6206 " fill="none" id="355aeb7ac3f8fa43e8d94fbf0e4b8d6c-to-d5baecb173d637b4e1f821d6b00b6f89" style="stroke:#181818;stroke-width:1.0;stroke-dasharray:7.0,7.0;"/><polygon fill="#181818" points="1564.23,598.44,1565.9182,588.7369,1563.0125,593.5905,1558.159,590.6848,1564.23,598.44" style="stroke:#181818;stroke-width:1.0;"/><text fill="#000000" font-family="sans-serif" font-size="13" lengthAdjust="spacing" textLength="23" x="1527" y="445.8569">use</text></g><!--link 0e14625139d268ff102ab34038658cbb to a40ec30778b0df0a680fa7fb121dfa97--><g id="link_0e14625139d268ff102ab34038658cbb_a40ec30778b0df0a680fa7fb121dfa97"><path codeLine="84" d="M1353.94,638.39 C1325.99,663.54 1276.95,707.68 1249.02,732.81 " fill="none" id="0e14625139d268ff102ab34038658cbb-a40ec30778b0df0a680fa7fb121dfa97" style="stroke:#181818;stroke-width:1.0;"/><text fill="#000000" font-family="sans-serif" font-size="13" lengthAdjust="spacing" textLength="14" x="1298" y="699.1469">rw</text></g><!--link 355aeb7ac3f8fa43e8d94fbf0e4b8d6c to 0e14625139d268ff102ab34038658cbb--><g id="link_355aeb7ac3f8fa43e8d94fbf0e4b8d6c_0e14625139d268ff102ab34038658cbb"><path codeLine="85" d="M1457.94,266.05 C1437.27,353.64 1394.9589,532.8906 1380.8589,592.6006 " fill="none" id="355aeb7ac3f8fa43e8d94fbf0e4b8d6c-to-0e14625139d268ff102ab34038658cbb" style="stroke:#181818;stroke-width:1.0;stroke-dasharray:7.0,7.0;"/><polygon fill="#181818" points="1379.48,598.44,1385.4413,590.6002,1380.6291,593.5738,1377.6555,588.7616,1379.48,598.44" style="stroke:#181818;stroke-width:1.0;"/><text fill="#000000" font-family="sans-serif" font-size="13" lengthAdjust="spacing" textLength="23" x="1419" y="445.8569">use</text></g><!--reverse link cab64c5af73a02ce213c72c614ccdc8f to d77d5e503ad1439f585ac494268b351b--><g id="link_cab64c5af73a02ce213c72c614ccdc8f_d77d5e503ad1439f585ac494268b351b"><path codeLine="86" d="M1017.3982,39.6687 C1180.7582,43.7187 1633.51,59.1 1680,106.6 C1696.965,123.935 1699.1675,150.9975 1697.03,174.0125 C1696.7628,176.8894 1696.4278,179.703 1696.0454,182.4265 " fill="none" id="cab64c5af73a02ce213c72c614ccdc8f-backto-d77d5e503ad1439f585ac494268b351b" style="stroke:#181818;stroke-width:1.0;"/><polygon fill="#181818" points="1011.4,39.52,1020.2981,43.7418,1016.3985,39.6439,1020.4964,35.7443,1011.4,39.52" style="stroke:#181818;stroke-width:1.0;"/></g><!--reverse link d9fe74bd71c5f1efd83d8f6cfdd7bef5 to fe4c0f30aa359c41d9f9a5f69c8c4192--><g id="link_d9fe74bd71c5f1efd83d8f6cfdd7bef5_fe4c0f30aa359c41d9f9a5f69c8c4192"><path codeLine="87" d="M344.0907,53.0661 C309.7507,63.3161 272.83,78.9 243,106.6 C223.13,125.05 209.2525,152.13 200.2825,174.875 C199.1613,177.7181 198.1167,180.4935 197.1467,183.1758 C196.6617,184.517 196.1953,185.8349 195.7473,187.1264 C195.5233,187.7721 195.3039,188.4113 195.0891,189.0434 " fill="none" id="d9fe74bd71c5f1efd83d8f6cfdd7bef5-backto-fe4c0f30aa359c41d9f9a5f69c8c4192" style="stroke:#181818;stroke-width:1.0;"/><polygon fill="#181818" points="349.84,51.35,340.0719,50.0912,345.0489,52.7801,342.36,57.757,349.84,51.35" style="stroke:#181818;stroke-width:1.0;"/></g><!--SRC=[bLRTRgD53BtFKqIvWaXjn_C_5UeLJm0IN00N_flTQBD9IT8j4kBTSRuatPQ5dQ18KQhQn_RniJsuNc-VFwx-M6tUpJPRqVbYkUoxxUPmSrZfRhdyTVFTTnizF6zt7nuU5dFSpwLrBP6a0ASEsgK6gJrp5ocaFRt04FA7_qHXf1mvOIy1dMVr4BXupX2PXMi_e_oqFUXa7ncJG05aHFQS67q6ReMSH1TgcFyvc_Fsu-Dsevl3l2S8GEWegACKg6WnqDPSwOLTo_DVPilb9yDUBcUpsM-pRxwTBwex9HO3kPXLN0irEujQ83KkN6hi6kCCTuTLHpxC5tTF-ztTUikuliF7nycxEhAq4WRs04PBeHvwAv39QHBfix_EXVsW-wVrOVAXYBL6A1J4GN5IKkGS2mT7nKF6jwM12_QVYj8SDF2b6dtgsHj2zZtmLDfkGl-oE106wDIwk2mX-XXoR0hsotWj4YRRvdsRh7qKK4hGQaGitPYNNW2IhyttvEJhL2HLoQKbiAzCd8iNn9enEK-A75we-DbKeRiJ5Hcgzrf3idvXxwMejPjxY5MQfVcMYbIPG4mMbGEKN3bs5tqIQgIWBavKF4_ePoe-io-h_QbX6O5C5v8YzUACtMO_0cI56ZINjn6FRRMKMYLJExlUUWUkiOa6Yzl2cNm3FmPSVSHtUZ-V_hx7zUDgeySaNh7sNd5zUC_lbJ-Sqh4-cdYagZVDn5YQ4iSSChCl8aWl5NnFfs4ibhac5r0WXjQJkNDiqUTA8G7z8_sKKAaO-RrsZ46DrTYfEurK9P-q8_GgzyVj_l3Er7GFwUPVA_Y4rlSLtLqCVr_V2Hxmb5mYL6jH2P93eQZGgmUnMR0fwRLzbGcd4BEtEMvYnHZFpYE5uwpdOzy_C_6ZwMpoiEcqbWI766nW8zYYQfXwRcpAWERVSj5QGHNAjciy5cDDFQMIZH30QFbDNEmD-yY65NQmPE_dc-r9HgUPEazLTevZPDDdqmOf2clAZJ0KzL8SNQnXihQzAIvartFmMNhYo6A6pSIMRA_1P6s3VUli0o_3M7889efM8NI6bADfbdhgvBltYA_tqktTfylQD8K6g3QhtTOPfIQn8c1hrNhkVKXll7QVTv8fm_ZsR5JqJbIrgwGGrNM9ERdsnk-BtfcNsf8gfT8nCkRgkYqG0kj-nrPUUGlTlEYbrUfHiYDhj-rEMm2j94eSwb6TDSw6Q_r6RiOBV6GmeGnxEjhq4yg8_ldzVB5xNemBkxsLszk7uNavuZtjTJ4RdikRfvk7yIc_3cPuouStwyZLy3QD32QKuNHTbSlmyeqCJhcCHdPq8YUKqIXUD3GixAoXOT2BXeRlakiqT1tCK4F3fy5rCAC3Er4-sbyNoeVFWJFbmw0NoeUlaUkA71tUgSZHjdqfSlHeE1Sv37efSdJP_ryBhink6FIItV15TLqBXe-HguRdRm00]--></g></svg>